<svg id="Layer_1" data-name="Layer 1" xmlns="http://www.w3.org/2000/svg" viewBox="0 0 197.45 197.17"><title>search</title><path d="M73.31.07c41,0,72.45,29.14,75.48,68.14a75.07,75.07,0,0,1-8.27,41c-1.61,3.14-1.09,4.93,1.29,7.3,17.64,17.47,35,35.17,52.75,52.57,3.51,3.45,4.11,5.64.19,9.16-5.82,5.23-11.33,10.83-16.6,16.61-3.09,3.38-5.14,2.87-8.09-.11-17-17.18-34.2-34.13-51.11-51.38-3.76-3.83-6.39-4.82-11.78-2C79.6,155.57,43.08,149,21.38,126.55-19,84.77.62,15.88,57,1.77A56.35,56.35,0,0,1,73.31.07Zm-46.9,74.1C25.49,98.86,46.7,123,74.94,122.82c29.07-.18,48.22-24.6,48.2-48.69,0-26.25-22.17-48.26-48.52-48.35S26.43,47.57,26.41,74.17Z"/></svg>